STARTFONT 2.1
FONT -Adobe-ITC Souvenir-Light-I-Normal--17-120-100-100-P-88-ISO8859-1
SIZE 12 100 100
FONTBOUNDINGBOX 22 19 -3 -3

STARTPROPERTIES 25
FONTNAME_REGISTRY ""
FAMILY_NAME "ITC Souvenir"
FOUNDRY "Adobe"
WEIGHT_NAME "Light"
SLANT "I"
SETWIDTH_NAME "Normal"
ADD_STYLE_NAME ""
PIXEL_SIZE 17
POINT_SIZE 120
RESOLUTION_X 100
RESOLUTION_Y 100
SPACING "P"
AVERAGE_WIDTH 88
CHARSET_REGISTRY "ISO8859"
CHARSET_ENCODING "1"
CHARSET_COLLECTIONS "ASCII ISO8859-1 ADOBE-STANDARD"
FULL_NAME "ITC Souvenir Light Italic"
COPYRIGHT "Copyright (c) 1987 Adobe Systems, Inc., Portions Copyright 1988 Digital Equipment Corp."
CAP_HEIGHT 12
X_HEIGHT 8
WEIGHT 10
QUAD_WIDTH 10
DEFAULT_CHAR 32
FONT_DESCENT 3
FONT_ASCENT 14
ENDPROPERTIES

CHARS 190

STARTCHAR space
ENCODING 32
SWIDTH 300 0
DWIDTH 4 0
BBX 1 1 0 0
BITMAP
00
ENDCHAR

STARTCHAR exclam
ENCODING 33
SWIDTH 300 0
DWIDTH 5 0
BBX 4 12 1 0
BITMAP
30
30
20
20
20
60
40
40
40
00
C0
C0
ENDCHAR

STARTCHAR quotedbl
ENCODING 34
SWIDTH 360 0
DWIDTH 6 0
BBX 5 5 1 7
BITMAP
48
48
D8
90
90
ENDCHAR

STARTCHAR numbersign
ENCODING 35
SWIDTH 600 0
DWIDTH 9 0
BBX 9 9 1 2
BITMAP
0900
0900
7F80
1200
2200
2400
FF00
4800
4800
ENDCHAR

STARTCHAR dollar
ENCODING 36
SWIDTH 600 0
DWIDTH 9 0
BBX 8 15 1 -2
BITMAP
04
04
1E
21
41
40
70
18
0E
02
82
84
78
20
20
ENDCHAR

STARTCHAR percent
ENCODING 37
SWIDTH 900 0
DWIDTH 14 0
BBX 13 12 1 0
BITMAP
3840
4440
8480
8480
8500
8A70
7288
0508
0908
0908
1110
10E0
ENDCHAR

STARTCHAR ampersand
ENCODING 38
SWIDTH 820 0
DWIDTH 13 0
BBX 12 12 0 0
BITMAP
0700
0880
1080
1100
0A00
1C70
2C20
4440
8680
8300
C380
7CF0
ENDCHAR

STARTCHAR quoteright
ENCODING 39
SWIDTH 300 0
DWIDTH 4 0
BBX 3 5 1 7
BITMAP
60
60
20
40
80
ENDCHAR

STARTCHAR parenleft
ENCODING 40
SWIDTH 260 0
DWIDTH 4 0
BBX 4 15 0 -3
BITMAP
10
20
20
40
40
40
80
80
80
80
80
80
80
40
40
ENDCHAR

STARTCHAR parenright
ENCODING 41
SWIDTH 260 0
DWIDTH 4 0
BBX 4 15 -1 -3
BITMAP
20
20
10
10
10
10
10
10
10
20
20
20
40
40
80
ENDCHAR

STARTCHAR asterisk
ENCODING 42
SWIDTH 540 0
DWIDTH 8 0
BBX 6 7 2 5
BITMAP
10
94
DC
30
EC
A4
20
ENDCHAR

STARTCHAR plus
ENCODING 43
SWIDTH 660 0
DWIDTH 11 0
BBX 9 9 1 0
BITMAP
0800
0800
0800
0800
FF80
0800
0800
0800
0800
ENDCHAR

STARTCHAR comma
ENCODING 44
SWIDTH 300 0
DWIDTH 4 0
BBX 3 5 -1 -3
BITMAP
60
60
20
40
80
ENDCHAR

STARTCHAR minus
ENCODING 45
SWIDTH 660 0
DWIDTH 10 0
BBX 8 1 1 4
BITMAP
FF
ENDCHAR

STARTCHAR period
ENCODING 46
SWIDTH 300 0
DWIDTH 4 0
BBX 2 2 0 0
BITMAP
C0
C0
ENDCHAR

STARTCHAR slash
ENCODING 47
SWIDTH 220 0
DWIDTH 4 0
BBX 7 14 -2 -2
BITMAP
02
02
04
04
08
08
10
10
20
20
40
40
80
80
ENDCHAR

STARTCHAR zero
ENCODING 48
SWIDTH 600 0
DWIDTH 9 0
BBX 8 12 1 0
BITMAP
1E
23
61
41
C1
81
81
83
82
86
C4
78
ENDCHAR

STARTCHAR one
ENCODING 49
SWIDTH 600 0
DWIDTH 9 0
BBX 5 12 2 0
BITMAP
08
78
18
10
10
10
10
30
20
20
20
F8
ENDCHAR

STARTCHAR two
ENCODING 50
SWIDTH 600 0
DWIDTH 9 0
BBX 9 12 1 0
BITMAP
1E00
2300
4180
6100
4300
0600
0C00
1000
2000
4000
8200
FE00
ENDCHAR

STARTCHAR three
ENCODING 51
SWIDTH 600 0
DWIDTH 9 0
BBX 8 12 1 0
BITMAP
1E
23
41
01
06
1C
06
02
02
82
86
7C
ENDCHAR

STARTCHAR four
ENCODING 52
SWIDTH 600 0
DWIDTH 9 0
BBX 8 12 1 0
BITMAP
02
06
0A
12
24
44
44
84
FF
08
08
3E
ENDCHAR

STARTCHAR five
ENCODING 53
SWIDTH 600 0
DWIDTH 9 0
BBX 8 12 1 0
BITMAP
3F
20
20
40
5C
66
42
02
02
84
8C
70
ENDCHAR

STARTCHAR six
ENCODING 54
SWIDTH 600 0
DWIDTH 10 0
BBX 8 12 2 0
BITMAP
07
18
20
40
5C
E6
C2
82
82
84
CC
70
ENDCHAR

STARTCHAR seven
ENCODING 55
SWIDTH 600 0
DWIDTH 9 0
BBX 7 12 3 0
BITMAP
FE
82
84
08
08
10
10
20
20
40
40
C0
ENDCHAR

STARTCHAR eight
ENCODING 56
SWIDTH 600 0
DWIDTH 10 0
BBX 9 12 1 0
BITMAP
0F00
1180
2080
2080
3100
1E00
6300
8100
8100
8100
C200
7C00
ENDCHAR

STARTCHAR nine
ENCODING 57
SWIDTH 600 0
DWIDTH 10 0
BBX 7 12 2 0
BITMAP
1C
66
42
82
82
86
CE
74
04
08
30
C0
ENDCHAR

STARTCHAR colon
ENCODING 58
SWIDTH 300 0
DWIDTH 4 0
BBX 3 6 0 0
BITMAP
60
60
00
00
C0
C0
ENDCHAR

STARTCHAR semicolon
ENCODING 59
SWIDTH 300 0
DWIDTH 4 0
BBX 4 9 -1 -3
BITMAP
30
30
00
00
60
60
20
40
80
ENDCHAR

STARTCHAR less
ENCODING 60
SWIDTH 660 0
DWIDTH 10 0
BBX 10 8 0 1
BITMAP
00C0
0300
0C00
3000
C000
3000
0C00
0300
ENDCHAR

STARTCHAR equal
ENCODING 61
SWIDTH 660 0
DWIDTH 11 0
BBX 8 4 2 2
BITMAP
FF
00
00
FF
ENDCHAR

STARTCHAR greater
ENCODING 62
SWIDTH 660 0
DWIDTH 10 0
BBX 10 8 0 0
BITMAP
3000
0C00
0300
00C0
0300
0C00
3000
C000
ENDCHAR

STARTCHAR question
ENCODING 63
SWIDTH 420 0
DWIDTH 7 0
BBX 6 12 1 0
BITMAP
38
44
84
04
0C
38
60
40
40
00
C0
C0
ENDCHAR

STARTCHAR at
ENCODING 64
SWIDTH 820 0
DWIDTH 13 0
BBX 12 12 1 0
BITMAP
0F00
30C0
4020
43A0
8D90
8910
9B10
9260
5F80
4020
30C0
0F00
ENDCHAR

STARTCHAR A
ENCODING 65
SWIDTH 740 0
DWIDTH 12 0
BBX 11 12 0 0
BITMAP
0100
0300
0500
0580
0880
1080
1080
3FC0
2040
4040
4040
E0E0
ENDCHAR

STARTCHAR B
ENCODING 66
SWIDTH 680 0
DWIDTH 11 0
BBX 10 12 0 0
BITMAP
3F80
10C0
1040
30C0
2180
2600
3980
20C0
6040
4080
4180
FE00
ENDCHAR

STARTCHAR C
ENCODING 67
SWIDTH 720 0
DWIDTH 11 0
BBX 10 12 1 0
BITMAP
0F80
38C0
6040
4040
C000
8000
8000
8000
8000
C080
6100
3E00
ENDCHAR

STARTCHAR D
ENCODING 68
SWIDTH 760 0
DWIDTH 12 0
BBX 12 12 0 0
BITMAP
3FC0
1060
1030
3010
2010
2010
2010
2030
6020
4060
41C0
FF00
ENDCHAR

STARTCHAR E
ENCODING 69
SWIDTH 660 0
DWIDTH 10 0
BBX 10 12 0 0
BITMAP
3FC0
1040
1000
3000
2100
3F00
2100
2000
6000
4080
4100
FF00
ENDCHAR

STARTCHAR F
ENCODING 70
SWIDTH 580 0
DWIDTH 9 0
BBX 10 12 0 0
BITMAP
3FC0
1040
1000
3000
2100
3F00
2100
2000
6000
4000
4000
E000
ENDCHAR

STARTCHAR G
ENCODING 71
SWIDTH 760 0
DWIDTH 12 0
BBX 11 12 1 0
BITMAP
0F80
38C0
6040
4040
C000
8000
83E0
80C0
8080
C080
6180
3E00
ENDCHAR

STARTCHAR H
ENCODING 72
SWIDTH 820 0
DWIDTH 13 0
BBX 13 12 0 0
BITMAP
3838
1010
1010
3030
2020
3FE0
2020
2020
6060
4040
4040
E0E0
ENDCHAR

STARTCHAR I
ENCODING 73
SWIDTH 300 0
DWIDTH 5 0
BBX 5 12 0 0
BITMAP
38
10
10
30
20
20
20
20
60
40
40
E0
ENDCHAR

STARTCHAR J
ENCODING 74
SWIDTH 500 0
DWIDTH 8 0
BBX 9 12 0 0
BITMAP
0380
0100
0100
0300
0200
0200
0200
6600
E400
8400
8C00
7800
ENDCHAR

STARTCHAR K
ENCODING 75
SWIDTH 700 0
DWIDTH 11 0
BBX 12 12 0 0
BITMAP
38F0
1040
1080
3100
2200
2E00
3200
2300
6100
4180
4080
E1C0
ENDCHAR

STARTCHAR L
ENCODING 76
SWIDTH 640 0
DWIDTH 10 0
BBX 10 12 0 0
BITMAP
3800
1000
1000
3000
2000
2000
2000
2000
6000
4040
4080
FF80
ENDCHAR

STARTCHAR M
ENCODING 77
SWIDTH 880 0
DWIDTH 14 0
BBX 15 12 0 0
BITMAP
381E
1818
1428
1448
2450
2490
2490
2710
6230
4220
4020
E070
ENDCHAR

STARTCHAR N
ENCODING 78
SWIDTH 780 0
DWIDTH 12 0
BBX 13 12 0 0
BITMAP
3038
1810
1810
2430
2620
2220
2120
21A0
60A0
40C0
4040
E040
ENDCHAR

STARTCHAR O
ENCODING 79
SWIDTH 780 0
DWIDTH 13 0
BBX 11 12 1 0
BITMAP
0F80
38C0
6060
4020
C020
8020
8020
8060
8040
C0C0
6380
3E00
ENDCHAR

STARTCHAR P
ENCODING 80
SWIDTH 640 0
DWIDTH 11 0
BBX 11 12 0 0
BITMAP
3FC0
1060
1020
3020
2060
2040
2180
3E00
6000
4000
4000
E000
ENDCHAR

STARTCHAR Q
ENCODING 81
SWIDTH 780 0
DWIDTH 13 0
BBX 11 14 1 -2
BITMAP
0F80
38C0
6060
4020
C020
8020
8020
8060
8040
C8C0
6B80
3E00
0C00
0780
ENDCHAR

STARTCHAR R
ENCODING 82
SWIDTH 700 0
DWIDTH 11 0
BBX 11 12 0 0
BITMAP
3FC0
1020
1020
3020
20C0
2300
3E00
2100
6100
4080
4080
E1C0
ENDCHAR

STARTCHAR S
ENCODING 83
SWIDTH 620 0
DWIDTH 10 0
BBX 9 12 0 0
BITMAP
0F00
1180
3080
2000
3000
1C00
0700
0180
4080
C100
6300
3C00
ENDCHAR

STARTCHAR T
ENCODING 84
SWIDTH 660 0
DWIDTH 10 0
BBX 10 12 1 0
BITMAP
FFC0
8840
0800
1800
1000
1000
1000
1000
3000
2000
2000
7000
ENDCHAR

STARTCHAR U
ENCODING 85
SWIDTH 760 0
DWIDTH 12 0
BBX 12 12 1 0
BITMAP
7070
2020
2020
6060
4040
4040
4040
C0C0
8080
8080
4100
3E00
ENDCHAR

STARTCHAR V
ENCODING 86
SWIDTH 700 0
DWIDTH 11 0
BBX 11 12 1 0
BITMAP
E0E0
4040
4040
4080
4080
4100
6100
2200
2400
3400
1800
1000
ENDCHAR

STARTCHAR W
ENCODING 87
SWIDTH 980 0
DWIDTH 16 0
BBX 17 12 0 0
BITMAP
E1C380
408100
408100
418200
418200
62C400
224400
244800
244800
285000
102000
102000
ENDCHAR

STARTCHAR X
ENCODING 88
SWIDTH 740 0
DWIDTH 12 0
BBX 12 12 0 0
BITMAP
3870
1020
1840
0880
0500
0600
0600
0900
1080
20C0
4040
E0E0
ENDCHAR

STARTCHAR Y
ENCODING 89
SWIDTH 740 0
DWIDTH 12 0
BBX 12 12 1 0
BITMAP
E070
4020
6040
2080
3100
1200
1C00
0800
0800
1800
1000
3800
ENDCHAR

STARTCHAR Z
ENCODING 90
SWIDTH 580 0
DWIDTH 9 0
BBX 10 12 0 0
BITMAP
1FC0
1080
2180
0100
0200
0400
0800
1800
1000
2080
4100
FF00
ENDCHAR

STARTCHAR bracketleft
ENCODING 91
SWIDTH 220 0
DWIDTH 4 0
BBX 5 15 0 -3
BITMAP
38
20
20
20
60
40
40
40
40
40
C0
80
80
80
E0
ENDCHAR

STARTCHAR backslash
ENCODING 92
SWIDTH 600 0
DWIDTH 9 0
BBX 6 12 1 0
BITMAP
80
80
40
40
20
20
10
10
08
08
04
04
ENDCHAR

STARTCHAR bracketright
ENCODING 93
SWIDTH 220 0
DWIDTH 4 0
BBX 5 15 -1 -3
BITMAP
38
08
08
08
18
10
10
10
10
10
30
20
20
20
E0
ENDCHAR

STARTCHAR asciicircum
ENCODING 94
SWIDTH 660 0
DWIDTH 11 0
BBX 9 9 1 3
BITMAP
0800
1400
1400
2200
2200
4100
4100
8080
8080
ENDCHAR

STARTCHAR underscore
ENCODING 95
SWIDTH 500 0
DWIDTH 8 0
BBX 8 1 0 -2
BITMAP
FF
ENDCHAR

STARTCHAR quoteleft
ENCODING 96
SWIDTH 300 0
DWIDTH 4 0
BBX 3 5 1 7
BITMAP
20
40
80
C0
C0
ENDCHAR

STARTCHAR a
ENCODING 97
SWIDTH 520 0
DWIDTH 8 0
BBX 8 8 0 0
BITMAP
1B
66
42
82
86
84
CD
76
ENDCHAR

STARTCHAR b
ENCODING 98
SWIDTH 540 0
DWIDTH 8 0
BBX 7 12 0 0
BITMAP
10
70
20
20
5C
66
42
42
C2
84
CC
B0
ENDCHAR

STARTCHAR c
ENCODING 99
SWIDTH 460 0
DWIDTH 7 0
BBX 7 8 0 0
BITMAP
1C
66
44
80
80
80
C4
78
ENDCHAR

STARTCHAR d
ENCODING 100
SWIDTH 580 0
DWIDTH 9 0
BBX 9 12 0 0
BITMAP
0080
0380
0100
0100
1B00
6600
4200
8200
8600
8400
CD00
7600
ENDCHAR

STARTCHAR e
ENCODING 101
SWIDTH 500 0
DWIDTH 8 0
BBX 7 8 0 0
BITMAP
1C
62
42
8C
F0
82
C4
78
ENDCHAR

STARTCHAR f
ENCODING 102
SWIDTH 360 0
DWIDTH 5 0
BBX 8 15 -1 -3
BITMAP
07
09
08
08
3C
10
10
10
10
30
20
20
20
A0
C0
ENDCHAR

STARTCHAR g
ENCODING 103
SWIDTH 520 0
DWIDTH 8 0
BBX 9 11 -1 -3
BITMAP
0F80
3200
2100
4100
4100
4200
6600
3800
8600
8200
7C00
ENDCHAR

STARTCHAR h
ENCODING 104
SWIDTH 580 0
DWIDTH 9 0
BBX 8 12 0 0
BITMAP
10
70
20
20
6C
52
62
42
46
C4
85
86
ENDCHAR

STARTCHAR i
ENCODING 105
SWIDTH 280 0
DWIDTH 5 0
BBX 4 11 1 0
BITMAP
10
10
00
20
E0
40
40
C0
80
A0
C0
ENDCHAR

STARTCHAR j
ENCODING 106
SWIDTH 260 0
DWIDTH 4 0
BBX 7 14 -2 -3
BITMAP
02
02
00
04
1C
08
08
08
08
18
10
10
90
E0
ENDCHAR

STARTCHAR k
ENCODING 107
SWIDTH 560 0
DWIDTH 9 0
BBX 7 12 1 0
BITMAP
10
70
20
20
66
4A
50
60
50
D8
88
8E
ENDCHAR

STARTCHAR l
ENCODING 108
SWIDTH 300 0
DWIDTH 5 0
BBX 4 12 1 0
BITMAP
10
70
20
20
60
40
40
40
C0
80
A0
C0
ENDCHAR

STARTCHAR m
ENCODING 109
SWIDTH 880 0
DWIDTH 14 0
BBX 13 8 0 0
BITMAP
4C60
D290
6310
4210
4230
C620
8428
8430
ENDCHAR

STARTCHAR n
ENCODING 110
SWIDTH 600 0
DWIDTH 10 0
BBX 8 8 1 0
BITMAP
4C
D2
62
42
46
C4
85
86
ENDCHAR

STARTCHAR o
ENCODING 111
SWIDTH 560 0
DWIDTH 9 0
BBX 8 8 0 0
BITMAP
1E
63
41
81
81
82
C6
78
ENDCHAR

STARTCHAR p
ENCODING 112
SWIDTH 580 0
DWIDTH 9 0
BBX 9 11 -1 -3
BITMAP
1700
3980
1080
1080
3080
2100
3300
6C00
4000
4000
E000
ENDCHAR

STARTCHAR q
ENCODING 113
SWIDTH 560 0
DWIDTH 8 0
BBX 8 11 0 -3
BITMAP
1B
66
42
82
86
84
CC
74
08
08
1C
ENDCHAR

STARTCHAR r
ENCODING 114
SWIDTH 400 0
DWIDTH 6 0
BBX 5 8 1 0
BITMAP
48
D8
60
40
40
C0
80
80
ENDCHAR

STARTCHAR s
ENCODING 115
SWIDTH 420 0
DWIDTH 7 0
BBX 6 8 0 0
BITMAP
38
44
44
60
18
88
88
70
ENDCHAR

STARTCHAR t
ENCODING 116
SWIDTH 360 0
DWIDTH 5 0
BBX 4 11 1 0
BITMAP
20
20
20
F0
40
40
C0
80
80
A0
C0
ENDCHAR

STARTCHAR u
ENCODING 117
SWIDTH 580 0
DWIDTH 9 0
BBX 8 8 0 0
BITMAP
21
E1
43
42
C2
86
8B
72
ENDCHAR

STARTCHAR v
ENCODING 118
SWIDTH 480 0
DWIDTH 8 0
BBX 7 8 0 0
BITMAP
22
E6
22
42
44
44
48
30
ENDCHAR

STARTCHAR w
ENCODING 119
SWIDTH 720 0
DWIDTH 12 0
BBX 11 8 0 0
BITMAP
2220
E260
2220
4420
4440
4440
4C80
3300
ENDCHAR

STARTCHAR x
ENCODING 120
SWIDTH 540 0
DWIDTH 8 0
BBX 8 8 0 0
BITMAP
63
55
14
18
18
28
A5
C6
ENDCHAR

STARTCHAR y
ENCODING 121
SWIDTH 500 0
DWIDTH 8 0
BBX 8 11 0 -3
BITMAP
21
E3
21
41
42
42
64
3C
08
90
E0
ENDCHAR

STARTCHAR z
ENCODING 122
SWIDTH 460 0
DWIDTH 7 0
BBX 7 8 0 0
BITMAP
3E
44
08
10
20
44
84
F8
ENDCHAR

STARTCHAR braceleft
ENCODING 123
SWIDTH 300 0
DWIDTH 5 0
BBX 5 15 1 -3
BITMAP
18
20
20
20
20
20
40
80
40
40
40
80
80
80
C0
ENDCHAR

STARTCHAR bar
ENCODING 124
SWIDTH 660 0
DWIDTH 10 0
BBX 1 12 5 0
BITMAP
80
80
80
80
80
80
80
80
80
80
80
80
ENDCHAR

STARTCHAR braceright
ENCODING 125
SWIDTH 300 0
DWIDTH 5 0
BBX 5 15 -1 -3
BITMAP
18
08
08
08
10
10
10
08
10
20
20
20
20
20
C0
ENDCHAR

STARTCHAR asciitilde
ENCODING 126
SWIDTH 660 0
DWIDTH 10 0
BBX 8 2 1 3
BITMAP
71
8E
ENDCHAR

STARTCHAR exclamdown
ENCODING 161
SWIDTH 300 0
DWIDTH 5 0
BBX 4 12 0 -3
BITMAP
30
30
00
20
20
20
60
40
40
40
C0
C0
ENDCHAR

STARTCHAR cent
ENCODING 162
SWIDTH 600 0
DWIDTH 9 0
BBX 7 12 1 0
BITMAP
08
08
1C
66
42
80
80
80
C4
78
20
20
ENDCHAR

STARTCHAR sterling
ENCODING 163
SWIDTH 600 0
DWIDTH 10 0
BBX 8 12 1 0
BITMAP
0E
11
21
20
20
20
7C
20
20
40
79
8E
ENDCHAR

STARTCHAR currency
ENCODING 164
SWIDTH 740 0
DWIDTH 10 0
BBX 8 8 1 2
BITMAP
BD
42
81
81
81
81
42
BD
ENDCHAR

STARTCHAR yen
ENCODING 165
SWIDTH 800 0
DWIDTH 9 0
BBX 11 12 0 0
BITMAP
E0E0
4040
6080
2100
3200
1400
7F00
0800
7F00
1000
1000
3800
ENDCHAR

STARTCHAR brokenbar
ENCODING 166
SWIDTH 660 0
DWIDTH 10 0
BBX 1 12 5 0
BITMAP
80
80
80
80
80
00
00
80
80
80
80
80
ENDCHAR

STARTCHAR section
ENCODING 167
SWIDTH 560 0
DWIDTH 9 0
BBX 9 15 0 -3
BITMAP
0F00
1100
2080
2000
1800
2E00
4300
4100
6100
3A00
0C00
0200
8200
4400
7800
ENDCHAR

STARTCHAR dieresis
ENCODING 168
SWIDTH 360 0
DWIDTH 6 0
BBX 4 2 2 9
BITMAP
90
90
ENDCHAR

STARTCHAR copyright
ENCODING 169
SWIDTH 820 0
DWIDTH 13 0
BBX 12 12 0 0
BITMAP
0F80
3060
4720
4890
8890
9010
9010
9090
9120
4E20
60C0
1F00
ENDCHAR

STARTCHAR ordfeminine
ENCODING 170
SWIDTH 400 0
DWIDTH 6 0
BBX 5 7 1 5
BITMAP
38
48
90
90
68
00
F0
ENDCHAR

STARTCHAR guillemotleft
ENCODING 171
SWIDTH 360 0
DWIDTH 6 0
BBX 6 5 0 2
BITMAP
24
48
90
90
48
ENDCHAR

STARTCHAR logicalnot
ENCODING 172
SWIDTH 660 0
DWIDTH 10 0
BBX 8 5 1 1
BITMAP
FF
01
01
01
01
ENDCHAR

STARTCHAR hyphen
ENCODING 173
SWIDTH 260 0
DWIDTH 4 0
BBX 3 1 0 4
BITMAP
E0
ENDCHAR

STARTCHAR registered
ENCODING 174
SWIDTH 820 0
DWIDTH 13 0
BBX 12 12 0 0
BITMAP
0F80
3060
5F20
4890
8890
8B10
9D10
9110
90A0
59A0
60C0
1F00
ENDCHAR

STARTCHAR macron
ENCODING 175
SWIDTH 300 0
DWIDTH 4 0
BBX 4 1 1 9
BITMAP
F0
ENDCHAR

STARTCHAR degree
ENCODING 176
SWIDTH 400 0
DWIDTH 6 0
BBX 5 5 1 7
BITMAP
70
88
88
88
70
ENDCHAR

STARTCHAR plusminus
ENCODING 177
SWIDTH 660 0
DWIDTH 11 0
BBX 9 9 1 0
BITMAP
0800
0800
0800
FF80
0800
0800
0800
0000
FF80
ENDCHAR

STARTCHAR twosuperior
ENCODING 178
SWIDTH 360 0
DWIDTH 6 0
BBX 6 7 0 5
BITMAP
38
44
48
10
20
48
F8
ENDCHAR

STARTCHAR threesuperior
ENCODING 179
SWIDTH 360 0
DWIDTH 6 0
BBX 6 7 0 5
BITMAP
38
44
08
30
08
88
70
ENDCHAR

STARTCHAR acute
ENCODING 180
SWIDTH 280 0
DWIDTH 4 0
BBX 3 3 2 9
BITMAP
60
40
80
ENDCHAR

STARTCHAR mu
ENCODING 181
SWIDTH 580 0
DWIDTH 9 0
BBX 9 11 -1 -3
BITMAP
1080
7080
2180
2100
6100
4300
4580
7900
4000
C000
C000
ENDCHAR

STARTCHAR paragraph
ENCODING 182
SWIDTH 680 0
DWIDTH 11 0
BBX 12 15 0 -3
BITMAP
1FF0
7140
4140
C240
4280
6280
1A80
0480
0500
0500
0500
0900
0A00
0A00
0A00
ENDCHAR

STARTCHAR periodcentered
ENCODING 183
SWIDTH 300 0
DWIDTH 5 0
BBX 2 2 1 3
BITMAP
C0
C0
ENDCHAR

STARTCHAR cedilla
ENCODING 184
SWIDTH 380 0
DWIDTH 6 0
BBX 4 3 0 -3
BITMAP
60
10
E0
ENDCHAR

STARTCHAR onesuperior
ENCODING 185
SWIDTH 360 0
DWIDTH 6 0
BBX 4 7 1 5
BITMAP
10
60
20
20
40
40
E0
ENDCHAR

STARTCHAR ordmasculine
ENCODING 186
SWIDTH 400 0
DWIDTH 6 0
BBX 5 7 1 5
BITMAP
30
48
88
90
60
00
F0
ENDCHAR

STARTCHAR guillemotright
ENCODING 187
SWIDTH 360 0
DWIDTH 6 0
BBX 6 5 -1 2
BITMAP
48
24
24
48
90
ENDCHAR

STARTCHAR onequarter
ENCODING 188
SWIDTH 900 0
DWIDTH 14 0
BBX 11 12 2 0
BITMAP
1020
6040
2080
2080
4100
4260
E4A0
0940
1240
13E0
2080
41C0
ENDCHAR

STARTCHAR onehalf
ENCODING 189
SWIDTH 900 0
DWIDTH 14 0
BBX 12 12 1 0
BITMAP
1020
6040
2080
2080
4100
42E0
E510
0920
1040
1080
2120
43E0
ENDCHAR

STARTCHAR threequarters
ENCODING 190
SWIDTH 900 0
DWIDTH 14 0
BBX 12 12 1 0
BITMAP
3810
4420
0840
3040
0880
8930
7250
04A0
0920
09F0
1040
20E0
ENDCHAR

STARTCHAR questiondown
ENCODING 191
SWIDTH 420 0
DWIDTH 7 0
BBX 6 12 0 -3
BITMAP
0C
0C
00
08
08
18
70
C0
80
84
88
70
ENDCHAR

STARTCHAR Agrave
ENCODING 192
SWIDTH 740 0
DWIDTH 12 0
BBX 11 16 0 0
BITMAP
0600
0200
0100
0000
0100
0300
0500
0580
0880
1080
1080
3FC0
2040
4040
4040
E0E0
ENDCHAR

STARTCHAR Aacute
ENCODING 193
SWIDTH 740 0
DWIDTH 12 0
BBX 11 16 0 0
BITMAP
00C0
0080
0100
0000
0100
0300
0500
0580
0880
1080
1080
3FC0
2040
4040
4040
E0E0
ENDCHAR

STARTCHAR Acircumflex
ENCODING 194
SWIDTH 740 0
DWIDTH 12 0
BBX 11 16 0 0
BITMAP
0100
0380
0440
0000
0100
0300
0500
0580
0880
1080
1080
3FC0
2040
4040
4040
E0E0
ENDCHAR

STARTCHAR Atilde
ENCODING 195
SWIDTH 740 0
DWIDTH 12 0
BBX 11 15 0 0
BITMAP
0340
0580
0000
0100
0300
0500
0580
0880
1080
1080
3FC0
2040
4040
4040
E0E0
ENDCHAR

STARTCHAR Adieresis
ENCODING 196
SWIDTH 740 0
DWIDTH 12 0
BBX 11 15 0 0
BITMAP
0440
0440
0000
0100
0300
0500
0580
0880
1080
1080
3FC0
2040
4040
4040
E0E0
ENDCHAR

STARTCHAR Aring
ENCODING 197
SWIDTH 740 0
DWIDTH 12 0
BBX 11 16 0 0
BITMAP
0180
0280
0300
0000
0100
0300
0500
0580
0880
1080
1080
3FC0
2040
4040
4040
E0E0
ENDCHAR

STARTCHAR AE
ENCODING 198
SWIDTH 960 0
DWIDTH 15 0
BBX 15 12 0 0
BITMAP
03FE
0142
0240
0440
0448
08F8
1088
1F80
2080
4080
4084
E3FC
ENDCHAR

STARTCHAR Ccedilla
ENCODING 199
SWIDTH 720 0
DWIDTH 11 0
BBX 10 15 1 -3
BITMAP
0F80
38C0
6040
4040
C000
8000
8000
8000
8000
C080
6100
3E00
0C00
0200
1C00
ENDCHAR

STARTCHAR Egrave
ENCODING 200
SWIDTH 660 0
DWIDTH 10 0
BBX 10 16 0 0
BITMAP
0600
0200
0100
0000
3FC0
1040
1000
3000
2100
3F00
2100
2000
6000
4080
4100
FF00
ENDCHAR

STARTCHAR Eacute
ENCODING 201
SWIDTH 660 0
DWIDTH 10 0
BBX 10 16 0 0
BITMAP
0180
0100
0200
0000
3FC0
1040
1000
3000
2100
3F00
2100
2000
6000
4080
4100
FF00
ENDCHAR

STARTCHAR Ecircumflex
ENCODING 202
SWIDTH 660 0
DWIDTH 10 0
BBX 10 16 0 0
BITMAP
0200
0700
0880
0000
3FC0
1040
1000
3000
2100
3F00
2100
2000
6000
4080
4100
FF00
ENDCHAR

STARTCHAR Edieresis
ENCODING 203
SWIDTH 660 0
DWIDTH 10 0
BBX 10 15 0 0
BITMAP
0480
0480
0000
3FC0
1040
1000
3000
2100
3F00
2100
2000
6000
4080
4100
FF00
ENDCHAR

STARTCHAR Igrave
ENCODING 204
SWIDTH 300 0
DWIDTH 5 0
BBX 5 16 0 0
BITMAP
30
10
08
00
38
10
10
30
20
20
20
20
60
40
40
E0
ENDCHAR

STARTCHAR Iacute
ENCODING 205
SWIDTH 300 0
DWIDTH 5 0
BBX 6 16 0 0
BITMAP
0C
08
10
00
38
10
10
30
20
20
20
20
60
40
40
E0
ENDCHAR

STARTCHAR Icircumflex
ENCODING 206
SWIDTH 300 0
DWIDTH 5 0
BBX 6 16 0 0
BITMAP
10
38
44
00
38
10
10
30
20
20
20
20
60
40
40
E0
ENDCHAR

STARTCHAR Idieresis
ENCODING 207
SWIDTH 300 0
DWIDTH 5 0
BBX 6 15 0 0
BITMAP
24
24
00
38
10
10
30
20
20
20
20
60
40
40
E0
ENDCHAR

STARTCHAR Eth
ENCODING 208
SWIDTH 760 0
DWIDTH 12 0
BBX 12 12 0 0
BITMAP
3FC0
1060
1030
3010
2010
FC10
2010
2030
6020
4060
41C0
FF00
ENDCHAR

STARTCHAR Ntilde
ENCODING 209
SWIDTH 780 0
DWIDTH 12 0
BBX 13 15 0 0
BITMAP
0340
0580
0000
3038
1810
1810
2430
2620
2220
2120
21A0
60A0
40C0
4040
E040
ENDCHAR

STARTCHAR Ograve
ENCODING 210
SWIDTH 780 0
DWIDTH 13 0
BBX 11 16 1 0
BITMAP
0600
0200
0100
0000
0F80
38C0
6060
4020
C020
8020
8020
8060
8040
C0C0
6380
3E00
ENDCHAR

STARTCHAR Oacute
ENCODING 211
SWIDTH 780 0
DWIDTH 13 0
BBX 11 16 1 0
BITMAP
0300
0200
0400
0000
0F80
38C0
6060
4020
C020
8020
8020
8060
8040
C0C0
6380
3E00
ENDCHAR

STARTCHAR Ocircumflex
ENCODING 212
SWIDTH 780 0
DWIDTH 13 0
BBX 11 16 1 0
BITMAP
0200
0700
0880
0000
0F80
38C0
6060
4020
C020
8020
8020
8060
8040
C0C0
6380
3E00
ENDCHAR

STARTCHAR Otilde
ENCODING 213
SWIDTH 780 0
DWIDTH 13 0
BBX 11 15 1 0
BITMAP
0680
0B00
0000
0F80
38C0
6060
4020
C020
8020
8020
8060
8040
C0C0
6380
3E00
ENDCHAR

STARTCHAR Odieresis
ENCODING 214
SWIDTH 780 0
DWIDTH 13 0
BBX 11 15 1 0
BITMAP
0480
0480
0000
0F80
38C0
6060
4020
C020
8020
8020
8060
8040
C0C0
6380
3E00
ENDCHAR

STARTCHAR multiply
ENCODING 215
SWIDTH 660 0
DWIDTH 10 0
BBX 8 8 1 0
BITMAP
81
42
24
18
18
24
42
81
ENDCHAR

STARTCHAR Oslash
ENCODING 216
SWIDTH 780 0
DWIDTH 13 0
BBX 11 12 1 0
BITMAP
0FA0
38C0
60A0
4120
C220
8420
8420
8860
9040
A0C0
6380
BE00
ENDCHAR

STARTCHAR Ugrave
ENCODING 217
SWIDTH 760 0
DWIDTH 12 0
BBX 12 16 1 0
BITMAP
0600
0200
0100
0000
7070
2020
2020
6060
4040
4040
4040
C0C0
8080
8080
4100
3E00
ENDCHAR

STARTCHAR Uacute
ENCODING 218
SWIDTH 760 0
DWIDTH 12 0
BBX 12 16 1 0
BITMAP
0180
0100
0200
0000
7070
2020
2020
6060
4040
4040
4040
C0C0
8080
8080
4100
3E00
ENDCHAR

STARTCHAR Ucircumflex
ENCODING 219
SWIDTH 760 0
DWIDTH 12 0
BBX 12 16 1 0
BITMAP
0200
0700
0880
0000
7070
2020
2020
6060
4040
4040
4040
C0C0
8080
8080
4100
3E00
ENDCHAR

STARTCHAR Udieresis
ENCODING 220
SWIDTH 760 0
DWIDTH 12 0
BBX 12 15 1 0
BITMAP
0480
0480
0000
7070
2020
2020
6060
4040
4040
4040
C0C0
8080
8080
4100
3E00
ENDCHAR

STARTCHAR Yacute
ENCODING 221
SWIDTH 740 0
DWIDTH 12 0
BBX 12 16 1 0
BITMAP
0300
0200
0400
0000
E070
4020
6040
2080
3100
1200
1C00
0800
0800
1800
1000
3800
ENDCHAR

STARTCHAR Thorn
ENCODING 222
SWIDTH 640 0
DWIDTH 10 0
BBX 10 12 0 0
BITMAP
3800
1000
1F80
30C0
2040
2040
20C0
6080
4300
7C00
4000
E000
ENDCHAR

STARTCHAR germandbls
ENCODING 223
SWIDTH 540 0
DWIDTH 9 0
BBX 8 12 0 0
BITMAP
0E
11
11
31
22
24
24
26
63
41
49
C6
ENDCHAR

STARTCHAR agrave
ENCODING 224
SWIDTH 520 0
DWIDTH 8 0
BBX 8 12 0 0
BITMAP
18
08
04
00
1B
66
42
82
86
84
CD
76
ENDCHAR

STARTCHAR aacute
ENCODING 225
SWIDTH 520 0
DWIDTH 8 0
BBX 8 12 0 0
BITMAP
06
04
08
00
1B
66
42
82
86
84
CD
76
ENDCHAR

STARTCHAR acircumflex
ENCODING 226
SWIDTH 520 0
DWIDTH 8 0
BBX 8 12 0 0
BITMAP
08
1C
22
00
1B
66
42
82
86
84
CD
76
ENDCHAR

STARTCHAR atilde
ENCODING 227
SWIDTH 520 0
DWIDTH 8 0
BBX 8 11 0 0
BITMAP
1A
2C
00
1B
66
42
82
86
84
CD
76
ENDCHAR

STARTCHAR adieresis
ENCODING 228
SWIDTH 520 0
DWIDTH 8 0
BBX 8 11 0 0
BITMAP
12
12
00
1B
66
42
82
86
84
CD
76
ENDCHAR

STARTCHAR aring
ENCODING 229
SWIDTH 520 0
DWIDTH 8 0
BBX 8 12 0 0
BITMAP
06
0A
0C
00
1B
66
42
82
86
84
CD
76
ENDCHAR

STARTCHAR ae
ENCODING 230
SWIDTH 820 0
DWIDTH 13 0
BBX 12 8 0 0
BITMAP
38E0
4710
0610
3C60
4780
8410
8E20
73C0
ENDCHAR

STARTCHAR ccedilla
ENCODING 231
SWIDTH 460 0
DWIDTH 7 0
BBX 7 11 0 -3
BITMAP
1C
66
44
80
80
80
C4
78
20
10
E0
ENDCHAR

STARTCHAR egrave
ENCODING 232
SWIDTH 500 0
DWIDTH 8 0
BBX 7 12 0 0
BITMAP
30
10
08
00
1C
62
42
8C
F0
82
C4
78
ENDCHAR

STARTCHAR eacute
ENCODING 233
SWIDTH 500 0
DWIDTH 8 0
BBX 7 12 0 0
BITMAP
06
04
08
00
1C
62
42
8C
F0
82
C4
78
ENDCHAR

STARTCHAR ecircumflex
ENCODING 234
SWIDTH 500 0
DWIDTH 8 0
BBX 7 12 0 0
BITMAP
08
1C
22
00
1C
62
42
8C
F0
82
C4
78
ENDCHAR

STARTCHAR edieresis
ENCODING 235
SWIDTH 500 0
DWIDTH 8 0
BBX 7 11 0 0
BITMAP
24
24
00
1C
62
42
8C
F0
82
C4
78
ENDCHAR

STARTCHAR igrave
ENCODING 236
SWIDTH 280 0
DWIDTH 5 0
BBX 3 12 1 0
BITMAP
C0
40
20
00
20
E0
40
40
C0
80
A0
C0
ENDCHAR

STARTCHAR iacute
ENCODING 237
SWIDTH 280 0
DWIDTH 5 0
BBX 5 12 1 0
BITMAP
18
10
20
00
20
E0
40
40
C0
80
A0
C0
ENDCHAR

STARTCHAR icircumflex
ENCODING 238
SWIDTH 280 0
DWIDTH 5 0
BBX 5 12 1 0
BITMAP
20
70
88
00
20
E0
40
40
C0
80
A0
C0
ENDCHAR

STARTCHAR idieresis
ENCODING 239
SWIDTH 280 0
DWIDTH 5 0
BBX 4 11 1 0
BITMAP
50
50
00
20
E0
40
40
C0
80
A0
C0
ENDCHAR

STARTCHAR eth
ENCODING 240
SWIDTH 560 0
DWIDTH 9 0
BBX 8 13 0 0
BITMAP
04
E8
18
24
42
1F
63
41
81
81
82
C6
78
ENDCHAR

STARTCHAR ntilde
ENCODING 241
SWIDTH 600 0
DWIDTH 10 0
BBX 8 11 1 0
BITMAP
1A
2C
00
4C
D2
62
42
46
C4
85
86
ENDCHAR

STARTCHAR ograve
ENCODING 242
SWIDTH 560 0
DWIDTH 9 0
BBX 8 12 0 0
BITMAP
30
10
08
00
1E
63
41
81
81
82
C6
78
ENDCHAR

STARTCHAR oacute
ENCODING 243
SWIDTH 560 0
DWIDTH 9 0
BBX 8 12 0 0
BITMAP
06
04
08
00
1E
63
41
81
81
82
C6
78
ENDCHAR

STARTCHAR ocircumflex
ENCODING 244
SWIDTH 560 0
DWIDTH 9 0
BBX 8 12 0 0
BITMAP
08
1C
22
00
1E
63
41
81
81
82
C6
78
ENDCHAR

STARTCHAR otilde
ENCODING 245
SWIDTH 560 0
DWIDTH 9 0
BBX 8 11 0 0
BITMAP
1A
2C
00
1E
63
41
81
81
82
C6
78
ENDCHAR

STARTCHAR odieresis
ENCODING 246
SWIDTH 560 0
DWIDTH 9 0
BBX 8 11 0 0
BITMAP
12
12
00
1E
63
41
81
81
82
C6
78
ENDCHAR

STARTCHAR divide
ENCODING 247
SWIDTH 660 0
DWIDTH 10 0
BBX 8 7 1 1
BITMAP
18
18
00
FF
00
18
18
ENDCHAR

STARTCHAR oslash
ENCODING 248
SWIDTH 560 0
DWIDTH 9 0
BBX 10 8 -1 0
BITMAP
0F40
3180
2280
4480
4880
5100
6300
BC00
ENDCHAR

STARTCHAR ugrave
ENCODING 249
SWIDTH 580 0
DWIDTH 9 0
BBX 8 12 0 0
BITMAP
30
10
08
00
21
E1
43
42
C2
86
8B
72
ENDCHAR

STARTCHAR uacute
ENCODING 250
SWIDTH 580 0
DWIDTH 9 0
BBX 8 12 0 0
BITMAP
06
04
08
00
21
E1
43
42
C2
86
8B
72
ENDCHAR

STARTCHAR ucircumflex
ENCODING 251
SWIDTH 580 0
DWIDTH 9 0
BBX 8 12 0 0
BITMAP
04
0E
11
00
21
E1
43
42
C2
86
8B
72
ENDCHAR

STARTCHAR udieresis
ENCODING 252
SWIDTH 580 0
DWIDTH 9 0
BBX 8 11 0 0
BITMAP
12
12
00
21
E1
43
42
C2
86
8B
72
ENDCHAR

STARTCHAR yacute
ENCODING 253
SWIDTH 500 0
DWIDTH 8 0
BBX 8 15 0 -3
BITMAP
06
04
08
00
21
E3
21
41
42
42
64
3C
08
90
E0
ENDCHAR

STARTCHAR thorn
ENCODING 254
SWIDTH 580 0
DWIDTH 9 0
BBX 9 15 -1 -3
BITMAP
0400
1C00
0800
0800
1700
1980
1080
1080
3080
2100
3300
6C00
4000
4000
E000
ENDCHAR

STARTCHAR ydieresis
ENCODING 255
SWIDTH 500 0
DWIDTH 8 0
BBX 8 14 0 -3
BITMAP
12
12
00
21
E3
21
41
42
42
64
3C
08
90
E0
ENDCHAR
ENDFONT
